<svg width="39" height="40" viewBox="0 0 39 40" fill="none" xmlns="http://www.w3.org/2000/svg">
<rect x="1" y="1.27734" width="37" height="37" rx="18.5" stroke="white" stroke-width="2"/>
<path d="M18 16.1053L13.343 20.7623C12.9525 21.1528 12.3194 21.1528 11.929 20.7623C11.5385 20.3719 11.5385 19.7388 11.929 19.3483L18.2928 12.9844C18.6834 12.5939 19.3165 12.5939 19.7071 12.9844L26.071 19.3483C26.4614 19.7388 26.4614 20.3719 26.071 20.7623C25.6805 21.1528 25.0474 21.1528 24.657 20.7623L20 16.1053L20 27.2773C20 27.8296 19.5522 28.2773 19 28.2773C18.4477 28.2773 18 27.8296 18 27.2773L18 16.1053Z" fill="white"/>
</svg>
